Coordinates
version=1
nRows=14
nColumns=36
inDegrees=yes

Units are S.I. units (second, meters, Newtons, ...)
If the header above contains a line with 'inDegrees', this indicates whether rotational values are in degrees (yes) or radians (no).

endheader
time	pelvis_tilt	pelvis_list	pelvis_rotation	pelvis_tx	pelvis_ty	pelvis_tz	hip_flexion_r	hip_adduction_r	hip_rotation_r	knee_angle_r	knee_angle_r_beta	ankle_angle_r	subtalar_angle_r	mtp_angle_r	hip_flexion_l	hip_adduction_l	hip_rotation_l	knee_angle_l	knee_angle_l_beta	ankle_angle_l	subtalar_angle_l	mtp_angle_l	lumbar_extension	lumbar_bending	lumbar_rotation	arm_flex_r	arm_add_r	arm_rot_r	elbow_flex_r	pro_sup_r	arm_flex_l	arm_add_l	arm_rot_l	elbow_flex_l	pro_sup_l
      0.00000000	      0.04348373	      0.88745890	     -1.41581722	      0.74482369	      0.79706026	      0.72570509	    -20.21319543	      2.26317090	      4.41509775	      2.91576853	      0.05088976	     12.08547504	     -6.49803464	     -6.97942364	     27.50162741	      1.77911943	      3.66324092	     12.56373903	      0.21927861	      1.74247417	     -5.10354246	     -6.97942364	     -4.39260137	     -1.94874322	      6.46943866	     10.91720997	    -15.42659098	     -1.38705877	     42.34219427	     85.41654467	      3.85241954	    -10.39886128	      0.44010828	      8.83418859	     86.30501433
      0.01666670	      0.67844375	      0.58865741	     -1.66261798	      0.74710257	      0.79544753	      0.72563884	    -20.49507655	      2.66664414	      4.95920420	      6.18019462	      0.10786474	     13.46835258	     -6.78183169	     -6.99434335	     26.39962007	      1.71267356	      4.56628468	     13.35287585	      0.23305165	      2.53254559	     -5.22789747	     -6.99434335	     -4.43470785	     -2.23274338	      6.75992043	     11.47201764	    -15.28533738	     -1.51430805	     42.61874717	     85.23288002	      3.84673259	    -10.62203384	      0.46128540	      9.43417785	     86.38085300
      0.03333330	      0.77112723	      1.09191940	     -2.14714820	      0.75158851	      0.79441457	      0.72442789	    -19.77217318	      1.89099616	      4.33027723	     10.45694153	      0.18250806	     13.40903910	     -6.87514952	     -7.14474282	     25.56615953	      2.31508253	      4.27971323	     14.44472741	      0.25210805	      2.05564038	     -5.43867268	     -7.14474282	     -3.39695791	     -2.78517477	      7.72610155	     11.76583307	    -15.27978072	     -0.97605003	     40.33677486	     87.52871358	      4.57461114	    -10.67134426	      1.94643118	      7.40423189	     94.16141318
      0.05000000	      0.93340866	      1.70864608	     -2.23852856	      0.75737541	      0.79513571	      0.72175934	    -18.16770654	      0.75129352	      2.82157589	     16.26854024	      0.28393959	     12.26144293	     -7.38519856	     -7.15359030	     24.63789355	      3.08863104	      3.80398311	     15.70315011	      0.27407167	      1.84809277	     -5.99758658	     -7.15359030	     -2.95899033	     -3.45192311	      7.76610205	     11.48169365	    -15.01724533	     -1.09022435	     39.12792137	     87.59513054	      4.39130208	    -10.67943429	      1.75272717	      7.37790830	     94.22971234
      0.06666670	      0.39171591	      2.10118988	     -2.50661287	      0.76276657	      0.79705108	      0.71947615	    -14.93556824	     -0.29808511	      1.88919339	     23.38196686	      0.40809231	      9.18792656	     -8.38487746	     -7.17655056	     24.37270763	      3.54158988	      3.01329431	     17.16656387	      0.29961306	      2.19489208	     -6.17941000	     -7.17655056	     -1.30814366	     -3.73682943	      7.83144072	     11.51480479	    -14.51864990	     -0.97183049	     35.40254700	     88.51018163	      4.24201592	    -10.42962702	      1.56248697	      6.61975607	     95.16639092
      0.08333330	      0.35252073	      2.73826077	     -2.96925764	      0.76679432	      0.80060413	      0.71779234	    -11.53547010	     -1.81269415	      1.27944020	     31.35302252	      0.54721347	      4.90423060	     -9.35970215	     -7.25509529	     23.42125270	      4.16682290	      1.92841017	     18.47171894	      0.32239231	      2.88776740	     -6.16444258	     -7.25509529	     -0.71189270	     -4.28382045	      7.37540415	     11.79019482	    -14.08129843	      0.13018563	     32.68815957	     92.50089292	      3.89411486	    -10.37220249	      1.68604613	      6.73900921	     98.97282164
      0.10000000	      0.05120462	      3.39712889	     -3.59753143	      0.76999610	      0.80503694	      0.71565999	     -7.55660062	     -3.33522616	      1.15629856	     39.16337186	      0.68352979	     -0.61172524	    -10.26373913	     -7.26053397	     22.45481836	      4.77301600	      0.77133103	     19.25922895	      0.33613696	      4.04665146	     -5.85976953	     -7.26053397	      0.07316415	     -4.91711946	      7.65956172	     10.92905409	    -13.50900040	     -0.04113012	     31.39036473	     90.99419561	      4.09727800	    -10.17351732	      2.12398470	      6.74881042	     97.86535179
      0.11666670	     -0.72769708	      3.99924323	     -4.15201266	      0.77226825	      0.80833201	      0.71299325	     -2.97507717	     -4.62100745	      1.33120167	     46.23770503	      0.80700019	     -5.80519821	    -10.79261609	     -7.27479358	     21.80213579	      5.35810437	     -0.23394996	     19.56287663	      0.34143661	      5.43505061	     -5.47877151	     -7.27479358	      1.34501759	     -5.37123107	      7.31832726	     10.05986066	    -12.82183834	      0.22506022	     29.87218644	     91.99766374	      3.69625989	    -10.19873697	      2.82569461	      7.63069341	     98.75852265
      0.13333330	     -1.49234399	      4.46587718	     -4.64875437	      0.77372941	      0.81048111	      0.71170792	      1.51566252	     -5.51959872	      1.70798151	     52.15336481	      0.91024793	     -9.55443453	    -10.88359575	     -7.28527054	     20.92609831	      5.84034282	     -0.97583321	     19.33779910	      0.33750826	      6.57286494	     -5.10438883	     -7.28527054	      2.69876688	     -5.59836372	      6.90677133	      9.02227302	    -12.06851330	      0.37147301	     28.35974121	     92.76741500	      3.49477123	    -10.18837330	      3.34424777	      8.38688460	     99.33441959
      0.15000000	     -2.30744192	      4.53876456	     -4.80503777	      0.77526733	      0.81233495	      0.71209394	      5.73190298	     -5.69395884	      1.93785174	     56.70455232	      0.98968114	    -10.96651089	    -10.60013242	     -7.29414372	     20.11958049	      5.95363186	     -1.51113033	     18.98816358	      0.33140597	      7.66131824	     -5.12001339	     -7.29414372	      3.75803071	     -5.48179830	      6.09132602	      7.74213710	    -11.47249714	      0.29304282	     26.68124088	     93.38079722	      3.41920617	    -10.24036752	      3.68453955	      9.10304472	     99.69280668
      0.16666670	     -3.40270121	      4.36044120	     -4.78511998	      0.77687139	      0.81466660	      0.71273160	      9.93938377	     -5.32087879	      2.16996517	     60.10042145	      1.04895024	    -10.76459266	    -10.25529902	     -7.35847635	     19.69760883	      5.83422449	     -1.69201131	     18.67358407	      0.32591553	      8.45773702	     -5.27753086	     -7.35847635	      5.31006769	     -4.96433532	      5.07679156	      6.75756952	    -10.75180585	     -0.98675227	     24.07949148	     98.62845420	      3.19677600	    -10.28585078	      3.93409949	      9.87731136	    101.91062937
      0.18333330	     -4.38852668	      4.13680576	     -4.78745470	      0.77761870	      0.81722154	      0.71258375	     13.85331338	     -4.73359667	      2.46739618	     62.70897401	      1.09447807	     -9.09687688	    -10.16195220	     -7.36940207	     19.16965842	      5.65882967	     -1.89101750	     18.22520947	      0.31808991	      8.90423472	     -5.36903481	     -7.36940207	      6.69902386	     -4.41776356	      4.26795608	      5.49636270	    -10.25326546	     -1.60684369	     22.46138092	     96.92864702	      3.17931496	    -10.22066507	      3.79126541	     10.24756113	     99.93704488
      0.20000000	     -4.90373044	      3.82130548	     -4.74557570	      0.77766127	      0.81906738	      0.71174539	     17.11439112	     -3.98218259	      2.75397777	     64.55631058	      1.12672017	     -6.48479015	    -10.65878548	     -7.37210748	     18.15558975	      5.49200075	     -1.67925988	     17.77497779	      0.31023189	      9.15356809	     -5.85300181	     -7.37210748	      7.40305920	     -3.86747255	      3.54114248	      4.40033546	     -9.91880104	     -2.03669211	     20.86280751	     95.49030928	      3.43808215	    -10.21675572	      3.58334858	     10.71215328	     98.32964449
      0.21666670	     -5.64079385	      3.40235173	     -4.54438016	      0.77773620	      0.82058170	      0.71084834	     20.51461246	     -3.10588519	      2.93681999	     65.42916801	      1.14195441	     -2.59077190	    -10.87773029	     -7.37229899	     17.35643043	      5.20057615	     -1.38792744	     17.40805066	      0.30382780	      9.47451361	     -6.02081125	     -7.37229899	      8.45865982	     -3.18148725	      2.41665014	      3.53242303	     -9.56321417	     -2.63413569	     18.93020179	     95.28165955	      3.49346955	    -10.27425979	      3.46111584	     11.22139936	     97.90290572
